# xmcd
#
# Track frame offsets:
#	150
#	14426
#	27774
#	41771
#	57385
#	75348
#	89810
#	106270
#	135010
#	153559
#
# Disc length: 2286
#
# Revision: 2
# Processed by: cddbd v1.5.1PL0 Copyright (c) Steve Scherf et al.
# Submitted via: CDex 1.50beta9
# Normalized: r0:TDELIM( - ),TSWAP
#
DISCID=7308ec0a
DTITLE=Various Artist - Legends Of American Music (Superstar Session)
DYEAR=1997
DGENRE=Jazz
TTITLE0=Dizzy Gillespie - Hot House
TTITLE1=Dizzy Gillespie - Blue 'N Boogie
TTITLE2=Artie Shaw - The Man I Love
TTITLE3=Dave Brubeck - You Can Depend On Me
TTITLE4=Pete Fountain - When The Saints Go Marching In
TTITLE5=Pete Fountain - Up A Lazy River
TTITLE6=Ahmad Jamal - Beautiful Love
TTITLE7=Stan Getz - Heart Place
TTITLE8=Miles Davis - Out Of Nowhere
TTITLE9=Herbie Hancock - TCB With Herbie
EXTD=YEAR: 1997
EXTT0=
EXTT1=
EXTT2=
EXTT3=
EXTT4=
EXTT5=
EXTT6=
EXTT7=
EXTT8=
EXTT9=
PLAYORDER=
